HIERARCHY
ROOT joint_Root
{
	OFFSET 0.0 0.0 0.0
	CHANNELS 6 Xposition Yposition Zposition Zrotation Xrotation Yrotation 
	JOINT Hips
	{
		OFFSET -0.726466 93.3139 -2.00062
		CHANNELS 6 Xposition Yposition Zposition Zrotation Xrotation Yrotation 
		JOINT Spine
		{
			OFFSET 15.7357 0.0 0.0
			CHANNELS 6 Xposition Yposition Zposition Zrotation Xrotation Yrotation 
			JOINT Chest
			{
				OFFSET 8.98455 -0.406207 0.0
				CHANNELS 6 Xposition Yposition Zposition Zrotation Xrotation Yrotation 
				JOINT Neck
				{
					OFFSET 16.3773 0.0 0.0
					CHANNELS 6 Xposition Yposition Zposition Zrotation Xrotation Yrotation 
					JOINT Head
					{
						OFFSET 6.45672 0.0 0.0
						CHANNELS 6 Xposition Yposition Zposition Zrotation Xrotation Yrotation 
						End Site
						{
							OFFSET 0.0 0.0 0.0
						}
					}
				}
				JOINT Shoulder_L
				{
					OFFSET 12.9942 -0.242716 4.98039
					CHANNELS 6 Xposition Yposition Zposition Zrotation Xrotation Yrotation 
					JOINT UpperArm_L
					{
						OFFSET 5.34809 0.0 0.0
						CHANNELS 6 Xposition Yposition Zposition Zrotation Xrotation Yrotation 
						JOINT LowerArm_L
						{
							OFFSET 24.3286 1.87007e-05 0.0
							CHANNELS 6 Xposition Yposition Zposition Zrotation Xrotation Yrotation 
							JOINT Hand_L
							{
								OFFSET 22.2916 0.0 0.0
								CHANNELS 6 Xposition Yposition Zposition Zrotation Xrotation Yrotation 
								End Site
								{
									OFFSET 0.0 0.0 0.0
								}
							}
						}
					}
				}
				JOINT Shoulder_R
				{
					OFFSET 12.9945 -0.242716 -4.98039
					CHANNELS 6 Xposition Yposition Zposition Zrotation Xrotation Yrotation 
					JOINT UpperArm_R
					{
						OFFSET -5.34813 0.0 0.0
						CHANNELS 6 Xposition Yposition Zposition Zrotation Xrotation Yrotation 
						JOINT LowerArm_R
						{
							OFFSET -24.3289 0.000322201 0.0
							CHANNELS 6 Xposition Yposition Zposition Zrotation Xrotation Yrotation 
							JOINT Hand_R
							{
								OFFSET -22.2915 -0.000108084 0.0
								CHANNELS 6 Xposition Yposition Zposition Zrotation Xrotation Yrotation 
								End Site
								{
									OFFSET 0.0 0.0 0.0
								}
							}
						}
					}
				}
			}
		}
		JOINT UpperLeg_L
		{
			OFFSET -2.19248 -6.46944 0.0
			CHANNELS 6 Xposition Yposition Zposition Zrotation Xrotation Yrotation 
			JOINT LowerLeg_L
			{
				OFFSET 39.0811 0.0 -1.23785e-05
				CHANNELS 6 Xposition Yposition Zposition Zrotation Xrotation Yrotation 
				JOINT Foot_L
				{
					OFFSET 40.9854 0.0 -1.26872e-05
					CHANNELS 6 Xposition Yposition Zposition Zrotation Xrotation Yrotation 
					JOINT Toes_L
					{
						OFFSET 11.7543 0.0 0.0
						CHANNELS 6 Xposition Yposition Zposition Zrotation Xrotation Yrotation 
						End Site
						{
							OFFSET 0.0 0.0 0.0
						}
					}
				}
			}
		}
		JOINT UpperLeg_R
		{
			OFFSET -2.19251 6.46944 0.0
			CHANNELS 6 Xposition Yposition Zposition Zrotation Xrotation Yrotation 
			JOINT LowerLeg_R
			{
				OFFSET -39.0811 -0.00228153 -0.0401928
				CHANNELS 6 Xposition Yposition Zposition Zrotation Xrotation Yrotation 
				JOINT Foot_R
				{
					OFFSET -40.9854 0.0 0.0
					CHANNELS 6 Xposition Yposition Zposition Zrotation Xrotation Yrotation 
					JOINT Toes_R
					{
						OFFSET -11.7543 0.0 0.0
						CHANNELS 6 Xposition Yposition Zposition Zrotation Xrotation Yrotation 
						End Site
						{
							OFFSET 0.0 0.0 0.0
						}
					}
				}
			}
		}
	}
}
MOTION
Frames:	7
Frame Time:	0.0333333
0.000000 0.000000 0.000000 0.000000 0.000000 -0.000000 -0.245333 92.397200 -0.336844 88.045500 -0.192435 4.438800 15.735700 0.000005 -0.000001 82.076900 86.102000 -81.442900 8.984550 -0.406207 -0.000000 -0.037822 -1.117520 1.266880 16.377300 -0.000001 -0.000001 4.305160 -2.455730 0.115491 6.456720 -0.000001 -0.000000 6.247590 -3.148590 -0.752085 12.994200 -0.242716 4.980390 -83.987300 -12.653400 -64.320300 5.348090 -0.000007 -0.000001 -88.255300 -44.559000 -98.881100 24.328600 0.000019 0.000005 -25.294900 -22.124200 -51.448000 22.291600 -0.000001 0.000005 54.084800 5.420510 -3.613960 12.994500 -0.242716 -4.980390 93.084700 -7.782690 -68.299200 -5.348130 -0.000001 -0.000004 -78.978800 -43.122900 -105.330000 -24.328900 0.000322 -0.000009 -9.689560 -13.937300 -35.329400 -22.291500 -0.000108 -0.000004 40.636500 4.689890 13.328500 -2.192480 -6.469440 -0.000000 -175.434000 -8.828810 -1.910970 39.081100 -0.000007 -0.000012 -0.098995 0.241675 22.275100 40.985400 -0.000006 -0.000013 0.229414 4.457210 -66.094300 11.754300 -0.000000 0.000003 -0.000058 -0.000644 -16.602500 -2.192510 6.469440 -0.000001 179.321000 15.484400 -178.860000 -39.081100 -0.002282 -0.040193 -0.009981 0.039729 18.515700 -40.985400 0.000008 0.000006 3.863310 7.528460 -65.696800 -11.754300 -0.000006 -0.000006 -0.008490 -0.091988 -20.319400
0.000000 0.000000 0.000000 0.000000 0.000000 -0.000000 -0.235136 92.367100 -0.209894 88.065500 -0.190612 4.737490 15.735700 0.000005 -0.000001 82.029000 86.103900 -81.411600 8.984550 -0.406207 -0.000000 -0.042676 -1.122340 1.233680 16.377300 -0.000001 -0.000001 4.450420 -2.521560 0.161925 6.456720 -0.000001 -0.000000 6.594440 -3.271940 -0.676974 12.994200 -0.242716 4.980390 -84.082800 -12.431300 -64.291100 5.348090 -0.000007 -0.000001 -83.183900 -44.080500 -98.199000 24.328600 0.000019 0.000005 -25.836900 -20.765800 -53.788600 22.291600 -0.000001 0.000005 48.021000 5.426880 -3.836960 12.994500 -0.242716 -4.980390 93.050900 -7.725690 -68.372500 -5.348130 -0.000001 -0.000004 -73.383000 -43.212200 -103.795000 -24.328900 0.000322 -0.000009 -9.544770 -12.341900 -38.191500 -22.291500 -0.000108 -0.000004 37.526500 4.775970 11.758800 -2.192480 -6.469440 -0.000000 -175.393000 -8.792780 -1.562650 39.081100 -0.000007 -0.000012 -0.101816 0.247215 22.384500 40.985400 -0.000006 -0.000013 0.226456 4.452280 -66.249400 11.754300 -0.000000 0.000003 -0.000067 -0.000729 -16.605700 -2.192510 6.469440 -0.000001 179.191000 15.498400 -178.526000 -39.081100 -0.002282 -0.040193 -0.008877 0.036093 18.677200 -40.985400 0.000008 0.000006 3.905070 7.535530 -65.884400 -11.754300 -0.000006 -0.000006 -0.008537 -0.092360 -20.334600
0.000000 0.000000 0.000000 0.000000 0.000000 -0.000000 -0.241357 92.343700 -0.110532 88.081100 -0.171626 4.977360 15.735700 0.000005 -0.000001 81.937900 86.137000 -81.336100 8.984550 -0.406207 -0.000000 -0.110085 -1.124630 1.201720 16.377300 -0.000001 -0.000001 4.523980 -2.593990 0.162936 6.456720 -0.000001 -0.000000 6.944330 -3.395960 -0.547654 12.994200 -0.242716 4.980390 -84.159700 -12.276000 -64.309000 5.348090 -0.000007 -0.000001 -77.628100 -43.380000 -97.772200 24.328600 0.000019 0.000005 -24.420800 -17.945900 -55.842400 22.291600 -0.000001 0.000005 42.892100 5.447260 -4.560290 12.994500 -0.242716 -4.980390 93.006400 -7.636200 -68.434100 -5.348130 -0.000001 -0.000004 -67.517400 -43.035800 -102.474000 -24.328900 0.000322 -0.000009 -7.658190 -8.747960 -41.487300 -22.291500 -0.000108 -0.000004 35.424400 4.867260 10.019100 -2.192480 -6.469440 -0.000000 -175.371000 -8.751130 -1.291060 39.081100 -0.000007 -0.000012 -0.102103 0.246828 22.473100 40.985400 -0.000006 -0.000013 0.222249 4.413210 -66.367800 11.754300 -0.000000 0.000003 -0.000061 -0.000675 -16.603700 -2.192510 6.469440 -0.000001 179.096000 15.501900 -178.256000 -39.081100 -0.002282 -0.040193 -0.007730 0.032457 18.807400 -40.985400 0.000008 0.000006 3.992660 7.498350 -66.045700 -11.754300 -0.000006 -0.000006 -0.008258 -0.090125 -20.243300
0.000000 0.000000 0.000000 0.000000 0.000000 -0.000000 -0.253658 92.314700 -0.032290 88.067000 -0.163368 5.167350 15.735700 0.000005 -0.000001 81.847800 86.172500 -81.242500 8.984550 -0.406207 -0.000000 -0.182133 -1.127210 1.207950 16.377300 -0.000001 -0.000001 4.475900 -2.602270 0.224707 6.456720 -0.000001 -0.000000 7.236080 -3.421190 -0.520757 12.994200 -0.242716 4.980390 -84.237000 -12.126400 -64.339000 5.348090 -0.000007 -0.000001 -72.383000 -42.584600 -97.843600 24.328600 0.000019 0.000005 -20.066500 -13.439900 -57.538700 22.291600 -0.000001 0.000005 38.880100 5.490400 -6.175280 12.994500 -0.242716 -4.980390 92.943800 -7.510150 -68.522700 -5.348130 -0.000001 -0.000004 -62.499000 -42.538700 -101.732000 -24.328900 0.000322 -0.000009 -5.064980 -4.872080 -46.234500 -22.291500 -0.000108 -0.000004 33.675900 4.930240 8.764110 -2.192480 -6.469440 -0.000000 -175.327000 -8.619930 -1.111900 39.081100 -0.000007 -0.000012 -0.103507 0.248319 22.627900 40.985400 -0.000006 -0.000013 0.200477 4.336930 -66.511800 11.754300 -0.000000 0.000003 -0.000063 -0.000692 -16.604300 -2.192510 6.469440 -0.000001 179.029000 15.576600 -178.073000 -39.081100 -0.002282 -0.040193 -0.009823 0.038279 18.953800 -40.985400 0.000008 0.000006 3.933720 7.578050 -66.164000 -11.754300 -0.000006 -0.000006 -0.008346 -0.090837 -20.272400
0.000000 0.000000 0.000000 0.000000 0.000000 -0.000000 -0.249077 92.299800 0.010760 88.096100 -0.187756 5.369940 15.735700 0.000005 -0.000001 82.029700 86.172600 -81.430800 8.984550 -0.406207 -0.000000 -0.179065 -1.102680 1.195480 16.377300 -0.000001 -0.000001 4.286400 -2.513300 0.223891 6.456720 -0.000001 -0.000000 7.282230 -3.373470 -0.408552 12.994200 -0.242716 4.980390 -84.319600 -11.949000 -64.339000 5.348090 -0.000007 -0.000001 -67.468500 -41.768800 -98.159600 24.328600 0.000019 0.000005 -12.277700 -7.441920 -59.255500 22.291600 -0.000001 0.000005 37.173300 5.554890 -8.951640 12.994500 -0.242716 -4.980390 92.885900 -7.386170 -68.587900 -5.348130 -0.000001 -0.000004 -58.566200 -41.908500 -101.444000 -24.328900 0.000322 -0.000009 -2.400220 -1.859320 -52.300500 -22.291500 -0.000108 -0.000004 31.321900 5.003090 7.239600 -2.192480 -6.469440 -0.000000 -175.322000 -8.639350 -0.889629 39.081100 -0.000007 -0.000012 -0.104153 0.249302 22.674100 40.985400 -0.000006 -0.000013 0.198193 4.310720 -66.572700 11.754300 -0.000000 0.000003 -0.000060 -0.000663 -16.603200 -2.192510 6.469440 -0.000001 178.929000 15.574400 -177.873000 -39.081100 -0.002282 -0.040193 -0.009470 0.037023 19.062000 -40.985400 0.000008 0.000006 3.975350 7.590680 -66.265500 -11.754300 -0.000006 -0.000006 -0.008055 -0.088483 -20.176200
0.000000 0.000000 0.000000 0.000000 0.000000 -0.000000 -0.248351 92.281400 0.026623 88.083800 -0.226545 5.508300 15.735700 0.000005 -0.000001 81.858800 86.159500 -81.248900 8.984550 -0.406207 -0.000000 -0.156039 -1.129620 1.217560 16.377300 -0.000001 -0.000001 3.957530 -2.410550 0.098115 6.456720 -0.000001 -0.000000 7.293910 -3.312490 -0.275325 12.994200 -0.242716 4.980390 -84.325000 -11.849100 -64.174900 5.348090 -0.000007 -0.000001 -63.407100 -41.049400 -98.587000 24.328600 0.000019 0.000005 -0.498800 -0.280694 -60.884900 22.291600 -0.000001 0.000005 37.796600 5.642040 -14.215100 12.994500 -0.242716 -4.980390 92.800000 -7.179640 -68.628400 -5.348130 -0.000001 -0.000004 -55.078300 -41.390600 -101.563000 -24.328900 0.000322 -0.000009 0.627219 0.403521 -57.233000 -22.291500 -0.000108 -0.000004 29.422300 5.214430 2.325350 -2.192480 -6.469440 -0.000000 -175.279000 -8.658090 -0.785840 39.081100 -0.000007 -0.000012 -0.104602 0.248921 22.793300 40.985400 -0.000006 -0.000013 0.208909 4.348270 -66.654000 11.754300 -0.000000 0.000003 -0.000071 -0.000763 -16.607000 -2.192510 6.469440 -0.000001 178.886000 15.552300 -177.770000 -39.081100 -0.002282 -0.040193 -0.012368 0.045150 19.164200 -40.985400 0.000008 0.000006 3.865170 7.623050 -66.307100 -11.754300 -0.000006 -0.000006 -0.008137 -0.089147 -20.203300
0.000000 0.000000 0.000000 0.000000 0.000000 -0.000000 -0.236234 92.273600 0.008638 88.068100 -0.244719 5.544120 15.735700 0.000005 -0.000001 81.255600 86.174000 -80.597400 8.984550 -0.406207 -0.000000 -0.195501 -1.208760 1.313540 16.377300 -0.000001 -0.000001 3.772530 -2.300970 0.050658 6.456720 -0.000001 -0.000000 7.032810 -3.103010 -0.588096 12.994200 -0.242716 4.980390 -84.340100 -11.801000 -64.145300 5.348090 -0.000007 -0.000001 -60.066100 -40.874200 -98.500800 24.328600 0.000019 0.000005 12.326300 6.480970 -62.679700 22.291600 -0.000001 0.000005 41.388000 5.684180 -22.243700 12.994500 -0.242716 -4.980390 92.800400 -7.137700 -68.512000 -5.348130 -0.000001 -0.000004 -52.239600 -40.873900 -102.002000 -24.328900 0.000322 -0.000009 3.511350 2.100330 -59.159100 -22.291500 -0.000108 -0.000004 30.216500 5.515600 -7.069100 -2.192480 -6.469440 -0.000000 -175.253000 -8.680970 -0.806512 39.081100 -0.000007 -0.000012 -0.106230 0.251780 22.875700 40.985400 -0.000006 -0.000013 0.218762 4.377510 -66.678800 11.754300 -0.000000 0.000003 -0.000065 -0.000706 -16.604900 -2.192510 6.469440 -0.000001 178.866000 15.549400 -177.766000 -39.081100 -0.002282 -0.040193 -0.015577 0.054244 19.209700 -40.985400 0.000008 0.000006 3.783260 7.685210 -66.305300 -11.754300 -0.000006 -0.000006 -0.008338 -0.090767 -20.269500
